<svg width="281" height="67" viewBox="0 0 281 67" fill="none" xmlns="http://www.w3.org/2000/svg">
<path d="M38.2224 52.9466C38.2224 53.3783 38.1662 53.7536 38.0724 54.1101C37.9786 54.4667 37.8098 54.767 37.5848 55.0109C37.3597 55.2549 37.0971 55.4613 36.7595 55.5927C36.4219 55.7241 36.0468 55.7991 35.5967 55.7991C35.1466 55.7991 34.7527 55.7241 34.4339 55.5927C34.1151 55.4613 33.8337 55.2549 33.6087 55.0109C33.3836 54.767 33.2336 54.4667 33.1398 54.1101C33.0273 53.7536 32.9897 53.3783 32.9897 52.9466C32.9897 52.515 33.0835 51.8769 33.2711 51.4641C33.4586 51.0512 33.7399 50.7134 34.1338 50.4882C34.5277 50.263 35.0153 50.1317 35.6155 50.1317C36.2156 50.1317 36.7033 50.2443 37.0784 50.4882C37.4722 50.7134 37.7535 51.0512 37.9411 51.4828C38.1287 51.9145 38.2224 52.4024 38.2224 52.9842V52.9466ZM34.2088 52.9466C34.2088 53.322 34.2651 53.6597 34.3589 53.9412C34.4526 54.2227 34.6027 54.4292 34.809 54.5793C35.0153 54.7294 35.2779 54.8045 35.5967 54.8045C35.9155 54.8045 36.1969 54.7294 36.4032 54.5793C36.6095 54.4292 36.7595 54.2227 36.8533 53.9412C36.9471 53.6597 37.0033 53.3407 37.0033 52.9466C37.0033 52.3649 36.8908 51.9145 36.6845 51.5767C36.4782 51.2389 36.1219 51.0887 35.6155 51.0887C35.1091 51.0887 35.0153 51.1638 34.809 51.3139C34.6027 51.4641 34.4526 51.6705 34.3589 51.952C34.2651 52.2335 34.2088 52.5525 34.2088 52.9466Z" fill="white"/>
<path d="M43.8865 55.7053H42.7424V50.2067H45.8933V51.1638H43.8865V52.5901H45.7433V53.5472H43.8865V55.7241V55.7053Z" fill="white"/>
<path d="M51.52 55.7053H50.376V50.2067H53.5268V51.1638H51.52V52.5901H53.3768V53.5472H51.52V55.7241V55.7053Z" fill="white"/>
<path d="M60.0535 55.7053H57.5403V55.0485L58.2155 54.7482V51.1826L57.5403 50.8823V50.2255H60.0535V50.8823L59.3783 51.1826V54.7482L60.0535 55.0485V55.7053Z" fill="white"/>
<path d="M66.7116 51.0887C66.4865 51.0887 66.299 51.1263 66.1302 51.2201C65.9614 51.3139 65.8113 51.4265 65.6988 51.5954C65.5863 51.7643 65.4925 51.952 65.4362 52.1772C65.38 52.4024 65.3425 52.6651 65.3425 52.9466C65.3425 53.2281 65.38 53.6785 65.4925 53.9412C65.5863 54.2227 65.7363 54.4292 65.9426 54.5793C66.1489 54.7294 66.4115 54.7857 66.7303 54.7857C67.0492 54.7857 67.1805 54.767 67.4055 54.7107C67.6306 54.6544 67.8744 54.5793 68.137 54.5042V55.4801C67.8932 55.5739 67.6493 55.649 67.4243 55.6865C67.1805 55.7241 66.9179 55.7616 66.6366 55.7616C66.0739 55.7616 65.605 55.649 65.2299 55.405C64.8548 55.1611 64.5923 54.842 64.4235 54.4104C64.2547 53.9788 64.1609 53.4908 64.1609 52.9279C64.1609 52.3649 64.2172 52.1397 64.3297 51.7831C64.4422 51.4265 64.611 51.145 64.8173 50.8823C65.0424 50.6383 65.3049 50.4319 65.6238 50.3005C65.9426 50.1692 66.3177 50.0941 66.7303 50.0941C67.143 50.0941 67.2742 50.1316 67.5556 50.1879C67.8369 50.263 68.0995 50.3568 68.3433 50.4694L67.9682 51.4078C67.7619 51.3139 67.5556 51.2201 67.3493 51.145C67.143 51.07 66.9367 51.0324 66.7303 51.0324L66.7116 51.0887Z" fill="white"/>
<path d="M74.7388 55.7053H72.2256V55.0485L72.9008 54.7482V51.1826L72.2256 50.8823V50.2255H74.7388V50.8823L74.0636 51.1826V54.7482L74.7388 55.0485V55.7053Z" fill="white"/>
<path d="M82.4283 55.7053L82.0344 54.3916H80.0277L79.6338 55.7053H78.3772L80.3277 50.1692H81.7531L83.7037 55.7053H82.4471H82.4283ZM81.3593 52.1209C81.3405 52.0271 81.303 51.9332 81.2655 51.7831C81.228 51.6517 81.1905 51.5204 81.1342 51.3702C81.0779 51.2201 81.0592 51.1075 81.0404 51.0137C81.0217 51.1075 80.9842 51.2389 80.9279 51.389C80.8904 51.5391 80.8341 51.6893 80.7966 51.8206C80.7591 51.952 80.7216 52.0458 80.7028 52.1021L80.309 53.3783H81.7344L81.3405 52.1021L81.3593 52.1209Z" fill="white"/>
<path d="M87.7737 55.7053V50.2067H88.9365V54.7482H91.1684V55.7053H87.7737Z" fill="white"/>
<path d="M103.04 55.7053H101.877V51.1638H100.377V50.188H104.522V51.1638H103.021V55.7053H103.04Z" fill="white"/>
<path d="M111.93 55.7053H108.76V50.2067H111.93V51.1638H109.923V52.3836H111.78V53.3407H109.923V54.767H111.93V55.7241V55.7053Z" fill="white"/>
<path d="M118.813 51.0887C118.588 51.0887 118.401 51.1263 118.232 51.2201C118.063 51.3139 117.913 51.4265 117.801 51.5954C117.688 51.7643 117.594 51.952 117.538 52.1772C117.482 52.4024 117.444 52.6651 117.444 52.9466C117.444 53.2281 117.482 53.6785 117.594 53.9412C117.688 54.2227 117.838 54.4292 118.044 54.5793C118.251 54.7294 118.513 54.7857 118.832 54.7857C119.151 54.7857 119.282 54.767 119.507 54.7107C119.732 54.6544 119.976 54.5793 120.239 54.5042V55.4801C119.995 55.5739 119.751 55.649 119.526 55.6865C119.301 55.7241 119.02 55.7616 118.738 55.7616C118.176 55.7616 117.707 55.649 117.332 55.405C116.957 55.1611 116.694 54.842 116.525 54.4104C116.356 53.9788 116.263 53.4908 116.263 52.9279C116.263 52.3649 116.319 52.1397 116.431 51.7831C116.544 51.4265 116.713 51.145 116.919 50.8823C117.144 50.6383 117.407 50.4319 117.726 50.3005C118.044 50.1692 118.42 50.0941 118.832 50.0941C119.245 50.0941 119.376 50.1316 119.657 50.1879C119.939 50.263 120.201 50.3568 120.445 50.4694L120.07 51.4078C119.864 51.3139 119.657 51.2201 119.451 51.145C119.245 51.07 119.038 51.0324 118.832 51.0324L118.813 51.0887Z" fill="white"/>
<path d="M129.279 55.7053H128.116V53.322H125.94V55.7053H124.777V50.2067H125.94V52.3649H128.116V50.2067H129.279V55.7053Z" fill="white"/>
<path d="M138.938 55.7053H137.456L135.055 51.5391H135.018C135.018 51.708 135.018 51.8957 135.036 52.0646C135.036 52.2335 135.036 52.4212 135.055 52.5901C135.055 52.759 135.055 52.9466 135.055 53.1155V55.7053H134.024V50.2067H135.487L137.868 54.3353H137.887C137.887 54.1665 137.887 53.9975 137.887 53.8287C137.887 53.6598 137.887 53.4909 137.887 53.322C137.887 53.1531 137.887 52.9842 137.887 52.8153V50.2067H138.938V55.7053Z" fill="white"/>
<path d="M148.709 52.9466C148.709 53.3783 148.653 53.7536 148.559 54.1101C148.465 54.4667 148.296 54.767 148.09 55.0109C147.884 55.2549 147.602 55.4613 147.265 55.5927C146.927 55.7241 146.552 55.7991 146.102 55.7991C145.652 55.7991 145.258 55.7241 144.939 55.5927C144.602 55.4613 144.339 55.2549 144.114 55.0109C143.889 54.767 143.739 54.4667 143.645 54.1101C143.533 53.7536 143.495 53.3783 143.495 52.9466C143.495 52.515 143.589 51.8769 143.776 51.4641C143.964 51.0512 144.245 50.7134 144.639 50.4882C145.033 50.263 145.521 50.1317 146.121 50.1317C146.721 50.1317 147.209 50.2443 147.584 50.4882C147.959 50.7134 148.259 51.0512 148.446 51.4828C148.634 51.9145 148.728 52.4024 148.728 52.9842L148.709 52.9466ZM144.695 52.9466C144.695 53.322 144.752 53.6597 144.845 53.9412C144.939 54.2227 145.089 54.4292 145.296 54.5793C145.502 54.7294 145.764 54.8045 146.083 54.8045C146.402 54.8045 146.683 54.7294 146.89 54.5793C147.096 54.4292 147.246 54.2227 147.34 53.9412C147.434 53.6597 147.49 53.3407 147.49 52.9466C147.49 52.3649 147.377 51.9145 147.171 51.5767C146.946 51.2389 146.608 51.0887 146.102 51.0887C145.596 51.0887 145.502 51.1638 145.296 51.3139C145.089 51.4641 144.939 51.6705 144.845 51.952C144.752 52.2335 144.695 52.5525 144.695 52.9466Z" fill="white"/>
<path d="M153.248 55.7053V50.2067H154.411V54.7482H156.642V55.7053H153.248Z" fill="white"/>
<path d="M165.832 52.9466C165.832 53.3783 165.776 53.7536 165.682 54.1101C165.589 54.4667 165.42 54.767 165.213 55.0109C165.007 55.2549 164.726 55.4613 164.388 55.5927C164.051 55.7241 163.675 55.7991 163.225 55.7991C162.775 55.7991 162.381 55.7241 162.063 55.5927C161.725 55.4613 161.462 55.2549 161.237 55.0109C161.012 54.767 160.862 54.4667 160.768 54.1101C160.656 53.7536 160.618 53.3783 160.618 52.9466C160.618 52.515 160.712 51.8769 160.9 51.4641C161.087 51.0512 161.369 50.7134 161.762 50.4882C162.156 50.263 162.644 50.1317 163.244 50.1317C163.844 50.1317 164.332 50.2443 164.707 50.4882C165.082 50.7134 165.382 51.0512 165.57 51.4828C165.757 51.9145 165.851 52.4024 165.851 52.9842L165.832 52.9466ZM161.819 52.9466C161.819 53.322 161.875 53.6597 161.969 53.9412C162.063 54.2227 162.213 54.4292 162.419 54.5793C162.625 54.7294 162.888 54.8045 163.207 54.8045C163.525 54.8045 163.807 54.7294 164.013 54.5793C164.219 54.4292 164.369 54.2227 164.463 53.9412C164.557 53.6597 164.613 53.3407 164.613 52.9466C164.613 52.3649 164.501 51.9145 164.294 51.5767C164.069 51.2389 163.732 51.0887 163.225 51.0887C162.719 51.0887 162.625 51.1638 162.419 51.3139C162.213 51.4641 162.063 51.6705 161.969 51.952C161.875 52.2335 161.819 52.5525 161.819 52.9466Z" fill="white"/>
<path d="M172.453 52.6088H174.629V55.4613C174.347 55.5552 174.047 55.6302 173.728 55.6865C173.41 55.7428 173.072 55.7804 172.659 55.7804C172.247 55.7804 171.647 55.6678 171.271 55.4613C170.896 55.2549 170.596 54.9171 170.409 54.5042C170.221 54.0914 170.109 53.5659 170.109 52.9466C170.109 52.3273 170.221 51.8769 170.446 51.4453C170.671 51.0324 170.99 50.6946 171.422 50.4694C171.853 50.2442 172.359 50.1129 172.978 50.1129C173.597 50.1129 173.56 50.1504 173.841 50.2067C174.122 50.263 174.385 50.3568 174.61 50.4507L174.235 51.389C174.066 51.2952 173.878 51.2201 173.653 51.1826C173.428 51.145 173.203 51.0887 172.978 51.0887C172.641 51.0887 172.34 51.1638 172.097 51.3139C171.853 51.4641 171.647 51.6893 171.515 51.9708C171.384 52.2523 171.309 52.5713 171.309 52.9654C171.309 53.3595 171.365 53.641 171.459 53.9225C171.553 54.204 171.703 54.4104 171.928 54.5793C172.134 54.7294 172.416 54.8045 172.753 54.8045C173.091 54.8045 173.053 54.8045 173.166 54.7857C173.278 54.767 173.391 54.7482 173.485 54.7294V53.5847H172.453V52.6088Z" fill="white"/>
<path d="M181.043 52.4587L182.187 50.188H183.443L181.624 53.5472V55.6865H180.461V53.5847L178.642 50.188H179.899L181.043 52.4587Z" fill="white"/>
<path d="M194.678 50.188C195.39 50.188 195.897 50.3381 196.234 50.6384C196.553 50.9386 196.722 51.3702 196.722 51.8957C196.722 52.4212 196.685 52.3649 196.61 52.5901C196.535 52.8153 196.422 53.0029 196.253 53.1718C196.084 53.3407 195.859 53.4721 195.597 53.5847C195.334 53.6973 194.997 53.7348 194.584 53.7348H194.078V55.6865H192.915V50.188H194.678ZM194.622 51.145H194.096V52.7777H194.471C194.697 52.7777 194.884 52.759 195.034 52.6839C195.184 52.6276 195.315 52.5338 195.409 52.4212C195.503 52.2898 195.541 52.1397 195.541 51.952C195.541 51.7643 195.466 51.4828 195.315 51.3515C195.165 51.2201 194.94 51.1638 194.622 51.1638V51.145Z" fill="white"/>
<path d="M204.149 55.7053L203.755 54.3916H201.749L201.355 55.7053H200.098L202.03 50.1692H203.455L205.406 55.7053H204.149ZM203.061 52.1209C203.043 52.0271 203.005 51.9332 202.968 51.7831C202.93 51.6517 202.893 51.5204 202.836 51.3702C202.78 51.2201 202.761 51.1075 202.743 51.0137C202.724 51.1075 202.686 51.2389 202.63 51.389C202.593 51.5391 202.536 51.6893 202.499 51.8206C202.461 51.952 202.424 52.0458 202.405 52.1021L202.011 53.3783H203.437L203.043 52.1021L203.061 52.1209Z" fill="white"/>
<path d="M211.089 50.188C211.595 50.188 211.989 50.2443 212.326 50.3756C212.645 50.4882 212.889 50.6759 213.058 50.9198C213.208 51.1638 213.302 51.4641 213.302 51.8394C213.302 52.2147 213.264 52.3086 213.152 52.4962C213.039 52.6839 212.927 52.8528 212.777 52.9654C212.626 53.0968 212.458 53.2094 212.27 53.2844L213.883 55.6865H212.589L211.276 53.5659H210.657V55.6865H209.494V50.188H211.089ZM210.995 51.145H210.638V52.6276H211.014C211.389 52.6276 211.67 52.5713 211.839 52.4399C212.008 52.3086 212.083 52.1209 212.083 51.8769C212.083 51.633 212.045 51.5579 211.97 51.4641C211.895 51.3515 211.764 51.2764 211.614 51.2389C211.464 51.2013 211.239 51.1638 210.995 51.1638V51.145Z" fill="white"/>
<path d="M220.072 55.7053H218.91V51.1638H217.409V50.188H221.573V51.1638H220.072V55.7053Z" fill="white"/>
<path d="M230.688 55.7053H229.206L226.805 51.5391H226.768C226.768 51.708 226.768 51.8957 226.787 52.0646C226.787 52.2335 226.787 52.4212 226.805 52.5901C226.805 52.759 226.805 52.9466 226.805 53.1155V55.7053H225.755V50.2067H227.218L229.6 54.3353H229.619C229.619 54.1665 229.619 53.9975 229.619 53.8287C229.619 53.6598 229.619 53.4909 229.619 53.322C229.619 53.1531 229.619 52.9842 229.619 52.8153V50.2067H230.669V55.7053H230.688Z" fill="white"/>
<path d="M238.64 55.7053H235.47V50.2067H238.64V51.1638H236.633V52.3836H238.49V53.3407H236.633V54.767H238.64V55.7241V55.7053Z" fill="white"/>
<path d="M244.773 50.188C245.279 50.188 245.673 50.2443 246.011 50.3756C246.33 50.4882 246.573 50.6759 246.742 50.9198C246.892 51.1638 246.986 51.4641 246.986 51.8394C246.986 52.2147 246.948 52.3086 246.836 52.4962C246.723 52.6839 246.611 52.8528 246.461 52.9654C246.311 53.0968 246.142 53.2094 245.954 53.2844L247.567 55.6865H246.273L244.96 53.5659H244.342V55.6865H243.179V50.188H244.792H244.773ZM244.698 51.145H244.342V52.6276H244.717C245.11 52.6276 245.373 52.5713 245.542 52.4399C245.711 52.3086 245.786 52.1209 245.786 51.8769C245.786 51.633 245.748 51.5579 245.673 51.4641C245.598 51.3702 245.467 51.2764 245.317 51.2389C245.148 51.1826 244.942 51.1638 244.698 51.1638V51.145Z" fill="white"/>
<path d="M35.3155 66.0831H33.8338L31.4331 61.917H31.3956C31.3956 62.0859 31.3956 62.2735 31.4144 62.4424C31.4144 62.6113 31.4144 62.799 31.4331 62.9679C31.4331 63.1368 31.4331 63.3245 31.4331 63.4934V66.0831H30.4016V60.5846H31.8645L34.2464 64.7132H34.2652C34.2652 64.5443 34.2652 64.3754 34.2652 64.2065C34.2652 64.0376 34.2652 63.8687 34.2652 63.6998C34.2652 63.5309 34.2652 63.362 34.2652 63.1931V60.5846H35.3155V66.0831Z" fill="white"/>
<path d="M43.249 66.0831H40.0793V60.5846H43.249V61.5417H41.2422V62.7615H43.0989V63.7186H41.2422V65.1448H43.249V66.1019V66.0831Z" fill="white"/>
<path d="M52.7766 63.3245C52.7766 63.7561 52.7203 64.1315 52.6265 64.488C52.5328 64.8446 52.364 65.1448 52.1389 65.3888C51.9138 65.6328 51.6513 65.8392 51.3137 65.9706C50.9761 66.1019 50.601 66.177 50.1509 66.177C49.7007 66.177 49.3069 66.1019 48.988 65.9706C48.6505 65.8392 48.3879 65.6328 48.1628 65.3888C47.9378 65.1448 47.7877 64.8446 47.6752 64.488C47.5627 64.1315 47.5251 63.7561 47.5251 63.3245C47.5251 62.8929 47.6189 62.2548 47.8065 61.8419C47.994 61.4291 48.2754 61.0913 48.6692 60.8661C49.0631 60.6409 49.5507 60.5095 50.1509 60.5095C50.751 60.5095 51.2387 60.6221 51.6325 60.8661C52.0264 61.0913 52.3077 61.4291 52.4953 61.8607C52.6828 62.2923 52.7766 62.7803 52.7766 63.362V63.3245ZM48.763 63.3245C48.763 63.6998 48.8192 64.0376 48.913 64.3191C49.0068 64.6006 49.1568 64.807 49.3632 64.9572C49.5695 65.1073 49.832 65.1824 50.1509 65.1824C50.4697 65.1824 50.751 65.1073 50.9573 64.9572C51.1636 64.807 51.3137 64.6006 51.4075 64.3191C51.5012 64.0376 51.5575 63.7186 51.5575 63.3245C51.5575 62.7427 51.445 62.2923 51.2387 61.9545C51.0324 61.6167 50.676 61.4666 50.1696 61.4666C49.6632 61.4666 49.5695 61.5417 49.3632 61.6918C49.1568 61.8419 49.0068 62.0484 48.913 62.3299C48.8192 62.6114 48.763 62.9304 48.763 63.3245Z" fill="white"/>
<path d="M59.641 66.0831L58.3094 61.7669H58.2719C58.2719 61.8607 58.2719 62.0296 58.2906 62.236C58.2906 62.4424 58.3094 62.6676 58.3281 62.8928C58.3281 63.118 58.3281 63.3432 58.3281 63.5309V66.0831H57.2778V60.5846H58.872L60.1661 64.7883H60.1849L61.5728 60.5846H63.1669V66.0831H62.0791V63.4746C62.0791 63.3057 62.0791 63.0993 62.0791 62.8741C62.0791 62.6489 62.0791 62.4237 62.0979 62.236C62.1167 62.0484 62.0979 61.8794 62.1167 61.7856H62.0791L60.6538 66.1019H59.5847L59.641 66.0831Z" fill="white"/>
<path d="M75.6952 66.0831L74.3636 61.7669H74.3261C74.3261 61.8607 74.3261 62.0296 74.3448 62.236C74.3448 62.4424 74.3636 62.6676 74.3824 62.8928C74.3824 63.118 74.3824 63.3432 74.3824 63.5309V66.0831H73.3508V60.5846H74.945L76.2391 64.7883H76.2579L77.6458 60.5846H79.2399V66.0831H78.1521V63.4746C78.1521 63.3057 78.1521 63.0993 78.1521 62.8741C78.1521 62.6489 78.1521 62.4237 78.1709 62.236C78.1897 62.0484 78.1709 61.8794 78.1897 61.7856H78.1521L76.7268 66.1019H75.6577L75.6952 66.0831Z" fill="white"/>
<path d="M85.6543 66.1582C85.2417 66.1582 84.8854 66.0831 84.5853 65.933C84.2852 65.7829 84.0602 65.5389 83.9101 65.2199C83.7601 64.9009 83.6851 64.488 83.6851 64.0001C83.6851 63.5121 83.7788 63.0617 83.9476 62.7427C84.1164 62.4237 84.3602 62.1797 84.6791 62.0296C84.9979 61.8795 85.3543 61.8044 85.7481 61.8044C86.142 61.8044 86.292 61.8231 86.4983 61.8982C86.7046 61.9545 86.8922 62.0296 87.061 62.1046L86.7234 62.9867C86.5358 62.9116 86.367 62.8553 86.217 62.799C86.067 62.7615 85.8982 62.7239 85.7481 62.7239C85.5981 62.7239 85.373 62.7615 85.2417 62.8741C85.1104 62.9867 85.0167 63.118 84.9416 63.3057C84.8666 63.4934 84.8479 63.7186 84.8479 64.0188C84.8479 64.3191 84.8854 64.5255 84.9416 64.7132C84.9979 64.9008 85.1104 65.0322 85.2417 65.126C85.373 65.2199 85.5418 65.2574 85.7294 65.2574C85.9169 65.2574 86.1795 65.2199 86.367 65.1636C86.5546 65.1073 86.7234 65.0134 86.9109 64.9008V65.8767C86.7421 65.9893 86.5546 66.0644 86.367 66.1207C86.1795 66.177 85.9357 66.1957 85.6356 66.1957L85.6543 66.1582Z" fill="white"/>
<path d="M91.3745 66.0831V60.5846H92.5373V65.1261H94.7692V66.0831H91.3745Z" fill="white"/>
<path d="M102.496 66.0832L102.103 64.7695H100.096L99.7019 66.0832H98.4453L100.396 60.5471H101.821L103.772 66.0832H102.515H102.496ZM101.409 62.5175C101.39 62.4237 101.352 62.3299 101.315 62.1797C101.277 62.0484 101.24 61.917 101.184 61.7669C101.127 61.6167 101.109 61.5041 101.09 61.4103C101.071 61.5041 101.034 61.6355 100.977 61.7856C100.94 61.9358 100.883 62.0859 100.846 62.2173C100.808 62.3486 100.771 62.4425 100.752 62.4988L100.358 63.7749H101.784L101.39 62.4988L101.409 62.5175Z" fill="white"/>
<path d="M109.436 60.5846C109.942 60.5846 110.355 60.6409 110.674 60.7722C110.992 60.8848 111.236 61.0725 111.405 61.3165C111.574 61.5604 111.649 61.8607 111.649 62.236C111.649 62.6113 111.611 62.7052 111.499 62.8928C111.386 63.0805 111.274 63.2494 111.124 63.362C110.974 63.4934 110.805 63.606 110.617 63.681L112.23 66.0831H110.936L109.623 63.9625H109.004V66.0831H107.842V60.5846H109.454H109.436ZM109.361 61.5417H109.004V63.0242H109.379C109.755 63.0242 110.036 62.9679 110.205 62.8365C110.373 62.7052 110.449 62.5175 110.449 62.2735C110.449 62.0296 110.411 61.9545 110.336 61.8607C110.261 61.7481 110.13 61.673 109.98 61.6355C109.83 61.598 109.605 61.5604 109.361 61.5604V61.5417Z" fill="white"/>
<path d="M119.488 66.0831H116.319V60.5846H119.488V61.5417H117.482V62.7615H119.338V63.7186H117.482V65.1448H119.488V66.1019V66.0831Z" fill="white"/>
<path d="M128.904 66.0831H127.422L125.021 61.917H124.984C124.984 62.0859 124.984 62.2735 125.003 62.4424C125.003 62.6113 125.003 62.799 125.021 62.9679C125.021 63.1368 125.021 63.3245 125.021 63.4934V66.0831H123.99V60.5846H125.453L127.835 64.7132H127.853C127.853 64.5443 127.853 64.3754 127.853 64.2065C127.853 64.0376 127.853 63.8687 127.853 63.6998C127.853 63.5309 127.853 63.362 127.853 63.1931V60.5846H128.904V66.0831Z" fill="white"/>
<path d="M140.213 66.0831H139.069V60.5846H142.22V61.5417H140.213V62.9679H142.07V63.925H140.213V66.1019V66.0831Z" fill="white"/>
<path d="M151.691 63.3245C151.691 63.7561 151.635 64.1315 151.541 64.488C151.447 64.8446 151.278 65.1448 151.072 65.3888C150.866 65.6328 150.584 65.8392 150.247 65.9706C149.909 66.1019 149.534 66.177 149.084 66.177C148.634 66.177 148.24 66.1019 147.921 65.9706C147.584 65.8392 147.321 65.6328 147.096 65.3888C146.871 65.1448 146.721 64.8446 146.627 64.488C146.515 64.1315 146.477 63.7561 146.477 63.3245C146.477 62.8929 146.571 62.2548 146.758 61.8419C146.946 61.4291 147.227 61.0913 147.621 60.8661C148.015 60.6409 148.503 60.5095 149.103 60.5095C149.703 60.5095 150.191 60.6221 150.566 60.8661C150.941 61.0913 151.241 61.4291 151.428 61.8607C151.616 62.2923 151.71 62.7803 151.71 63.362L151.691 63.3245ZM147.677 63.3245C147.677 63.6998 147.734 64.0376 147.827 64.3191C147.921 64.6006 148.071 64.807 148.278 64.9572C148.484 65.1073 148.746 65.1824 149.065 65.1824C149.384 65.1824 149.665 65.1073 149.872 64.9572C150.078 64.807 150.228 64.6006 150.322 64.3191C150.416 64.0376 150.472 63.7186 150.472 63.3245C150.472 62.7427 150.359 62.2923 150.153 61.9545C149.928 61.6167 149.59 61.4666 149.084 61.4666C148.578 61.4666 148.484 61.5417 148.278 61.6918C148.071 61.8419 147.921 62.0484 147.827 62.3299C147.734 62.6114 147.677 62.9304 147.677 63.3245Z" fill="white"/>
<path d="M157.824 60.5846C158.33 60.5846 158.724 60.6409 159.062 60.7722C159.381 60.8848 159.624 61.0725 159.793 61.3165C159.943 61.5604 160.037 61.8607 160.037 62.236C160.037 62.6113 160 62.7052 159.887 62.8928C159.774 63.0805 159.662 63.2494 159.512 63.362C159.362 63.4934 159.193 63.606 159.005 63.681L160.618 66.0831H159.324L158.011 63.9625H157.393V66.0831H156.23V60.5846H157.843H157.824ZM157.73 61.5417H157.374V63.0242H157.749C158.124 63.0242 158.405 62.9679 158.574 62.8365C158.743 62.7052 158.818 62.5175 158.818 62.2735C158.818 62.0296 158.78 61.9545 158.705 61.8607C158.63 61.7481 158.499 61.673 158.349 61.6355C158.199 61.598 157.974 61.5604 157.73 61.5604V61.5417Z" fill="white"/>
<path d="M167.014 66.0831L165.682 61.7669H165.645C165.645 61.8607 165.645 62.0296 165.664 62.236C165.664 62.4424 165.682 62.6676 165.701 62.8928C165.701 63.118 165.701 63.3432 165.701 63.5309V66.0831H164.67V60.5846H166.264L167.558 64.7883H167.577L168.946 60.5846H170.54V66.0831H169.452V63.4746C169.452 63.3057 169.452 63.0993 169.452 62.8741C169.452 62.6489 169.452 62.4237 169.471 62.236C169.49 62.0484 169.471 61.8794 169.471 61.7856H169.433L168.008 66.1019H166.939L167.014 66.0831Z" fill="white"/>
<path d="M179.824 64.1314C179.824 64.5068 179.73 64.8633 179.58 65.1636C179.43 65.4638 179.167 65.7078 178.83 65.8955C178.492 66.0831 178.061 66.1582 177.554 66.1582C176.823 66.1582 176.279 65.9705 175.885 65.5952C175.51 65.2199 175.323 64.732 175.323 64.1127V60.5658H176.485V63.9438C176.485 64.3942 176.579 64.7132 176.767 64.9009C176.954 65.0885 177.236 65.1823 177.592 65.1823C177.948 65.1823 178.061 65.1448 178.211 65.051C178.361 64.9572 178.492 64.8258 178.567 64.6381C178.642 64.4505 178.68 64.2253 178.68 63.9438V60.5846H179.842V64.1502L179.824 64.1314Z" fill="white"/>
<path d="M184.569 66.0831V60.5846H185.732V65.1261H187.964V66.0831H184.569Z" fill="white"/>
<path d="M195.691 66.0832L195.297 64.7695H193.29L192.896 66.0832H191.639L193.571 60.5471H194.997L196.947 66.0832H195.691ZM194.603 62.5175C194.584 62.4237 194.546 62.3299 194.509 62.1797C194.471 62.0484 194.434 61.917 194.378 61.7669C194.321 61.6167 194.303 61.5041 194.284 61.4103C194.265 61.5041 194.228 61.6355 194.171 61.7856C194.134 61.9358 194.078 62.0859 194.04 62.2173C194.003 62.3486 193.965 62.4425 193.946 62.4988L193.552 63.7749H194.978L194.584 62.4988L194.603 62.5175Z" fill="white"/>
<path d="M209.588 66.0831H206.418V60.5846H209.588V61.5417H207.581V62.7615H209.438V63.7186H207.581V65.1448H209.588V66.1019V66.0831Z" fill="white"/>
<path d="M221.648 66.0831H220.485V61.5417H218.984V60.5658H223.148V61.5417H221.648V66.0831Z" fill="white"/>
<path d="M230.538 66.0831H227.368V60.5846H230.538V61.5417H228.531V62.7615H230.388V63.7186H228.531V65.1448H230.538V66.1019V66.0831Z" fill="white"/>
<path d="M238.452 66.0832L238.058 64.7695H236.052L235.658 66.0832H234.401L236.352 60.5471H237.777L239.728 66.0832H238.471H238.452ZM237.364 62.5175C237.346 62.4237 237.308 62.3299 237.271 62.1797C237.233 62.0484 237.196 61.917 237.139 61.7669C237.102 61.6355 237.064 61.5041 237.046 61.4103C237.027 61.5041 236.989 61.6355 236.933 61.7856C236.896 61.9358 236.858 62.0859 236.802 62.2173C236.764 62.3486 236.727 62.4425 236.708 62.4988L236.314 63.7749H237.74L237.346 62.4988L237.364 62.5175Z" fill="white"/>
<path d="M246.123 66.0831L244.792 61.7669H244.754C244.754 61.8607 244.754 62.0296 244.773 62.236C244.773 62.4424 244.792 62.6676 244.81 62.8928C244.81 63.118 244.81 63.3432 244.81 63.5309V66.0831H243.76V60.5846H245.354L246.648 64.7883H246.667L248.055 60.5846H249.649V66.0831H248.561V63.4746C248.561 63.3057 248.561 63.0993 248.561 62.8741C248.561 62.6489 248.561 62.4237 248.58 62.236C248.599 62.0484 248.58 61.8794 248.58 61.7856H248.543L247.117 66.1019H246.048L246.123 66.0831Z" fill="white"/>
<path d="M6.37644 20.7997C6.33893 20.7997 6.28266 20.7997 6.24515 20.7997C4.12582 20.9123 1.78143 21.7568 1.125 20.4244C1.42508 21.3252 2.15653 23.5959 2.79421 25.6415C3.41313 27.6307 3.86325 29.62 4.44466 30.0516C6.26391 31.384 9.92116 30.1454 12.078 31.7218C14.1223 33.2044 13.6534 38.2713 15.5477 38.4965C17.4795 38.7217 17.2919 35.8692 17.9296 33.636C18.4735 31.7218 19.2425 29.376 21.118 26.6173C20.4615 25.7165 19.43 24.6281 17.8921 23.5021C16.748 22.6764 15.3977 22.0759 14.0098 21.663C10.8214 20.7434 8.36448 20.7247 6.39519 20.7997H6.37644Z" fill="#126491"/>
<path d="M17.9107 33.5984C17.9107 33.6359 17.8919 33.6922 17.8732 33.7298C17.3293 35.7753 17.4043 38.2713 15.9414 38.4965C16.8979 38.4965 19.2798 38.4965 21.3991 38.534C23.481 38.5715 25.5065 38.7592 26.1067 38.3276C27.9259 36.9951 27.8884 33.148 30.0453 31.5716C32.0896 30.0891 36.7784 32.0971 37.5661 30.3706C38.3913 28.5878 35.6155 27.8934 33.665 26.5985C32.0146 25.4913 30.0265 24.0275 27.9634 21.3814C26.9132 21.738 25.544 22.3761 24.0061 23.4833C22.862 24.309 21.8868 25.4162 21.0616 26.6173C19.2048 29.376 18.4358 31.703 17.8919 33.5984H17.9107Z" fill="#F5E6D1"/>
<path d="M33.6462 26.5797C33.6837 26.5985 33.7212 26.636 33.7587 26.6548C35.5217 27.8183 37.9411 28.5127 37.6786 29.9765C37.9787 29.0757 38.7101 26.7862 39.404 24.7782C40.0792 22.8077 40.8857 20.931 40.6606 20.2367C39.9667 18.0973 36.2907 16.9338 35.4655 14.4003C34.6778 11.9982 38.0349 8.16984 36.647 6.87496C35.2029 5.54254 33.6837 7.98218 31.8645 9.40843C30.3078 10.6282 28.301 12.0733 25.1501 13.218C25.1501 14.3252 25.3377 15.8266 25.9379 17.6281C26.3692 18.9606 27.1194 20.2367 28.0009 21.4002C30.0452 24.0087 32.0145 25.4725 33.6462 26.5797Z" fill="#BFDDC1"/>
<path d="M14.9851 5.86163C14.9851 5.8241 14.9476 5.7678 14.9288 5.73027C14.1786 3.74102 12.6407 1.77054 13.691 0.738388C12.922 1.30138 10.9902 2.70887 9.24602 3.92869C7.5393 5.12974 5.79508 6.1619 5.57002 6.85626C4.87608 8.99563 7.1642 12.0921 6.33898 14.6443C5.57002 17.0652 0.599907 18.1724 0.975009 20.0491C1.35011 21.9633 4.01334 20.8936 6.33898 20.8185C8.32702 20.7434 10.7839 20.7622 14.0098 21.6818C14.6475 20.781 15.3789 19.4673 15.9604 17.647C16.3917 16.3146 16.5418 14.832 16.5043 13.387C16.3917 10.0653 15.6603 7.73828 14.9663 5.8804L14.9851 5.86163Z" fill="#F3CDB2"/>
<path d="M31.8271 9.44596C31.8646 9.40843 31.9021 9.38966 31.9396 9.35213C33.5901 8.01971 34.978 5.93664 36.2908 6.63099C35.5219 6.068 33.5901 4.66052 31.8834 3.3844C30.2142 2.12704 28.695 0.794623 27.9635 0.794623C25.7129 0.794623 23.4811 3.92862 20.7991 3.92862C18.1171 3.92862 15.6789 -0.443963 14.0285 0.49436C12.3218 1.45145 14.1598 3.64713 14.9662 5.8428C15.6602 7.71945 16.3916 10.0653 16.5042 13.4057C17.5732 13.7435 19.0361 14.025 20.9491 14.025C22.8621 14.025 23.7999 13.706 25.169 13.2368C28.2824 12.1108 30.2892 10.6846 31.8459 9.44596H31.8271Z" fill="#17162B"/>
<path d="M16.5042 13.1993C16.5042 13.2556 16.5042 13.3119 16.5042 13.387C16.5042 13.5371 16.5042 13.706 16.5042 13.8749C15.9228 14.1377 15.5289 14.7194 15.5289 15.395C15.5289 15.9392 15.7915 16.4084 16.2041 16.7274C16.1666 16.9339 16.0916 17.1591 16.0353 17.3655C15.3601 16.9714 14.91 16.2395 14.8912 15.4138C14.8912 14.4004 15.5477 13.5184 16.4667 13.2369L16.5042 13.1993ZM13.6159 15.395C13.6159 15.5076 13.6159 15.6202 13.6159 15.7328C13.6534 15.7328 13.6909 15.7703 13.7284 15.7891C13.7284 15.7891 13.7472 15.7891 13.7659 15.7891C13.841 15.8266 13.916 15.8642 13.991 15.9017C14.0285 15.9205 14.066 15.9392 14.1035 15.958C14.1223 15.958 14.1598 15.9955 14.1786 16.0143C14.2161 16.0331 14.2536 16.0706 14.3098 16.0894C14.2536 15.8642 14.2161 15.6202 14.2161 15.3762C14.2161 13.9875 15.1726 12.8052 16.4479 12.4862C16.4479 12.2798 16.4104 12.0733 16.3917 11.8669C14.7787 12.2235 13.5784 13.6685 13.5971 15.395H13.6159ZM12.303 15.2449C12.5093 15.3012 12.7157 15.3575 12.922 15.4325V15.395C12.922 13.3119 14.3849 11.5854 16.3354 11.1725C16.3166 10.9661 16.2791 10.7597 16.2416 10.572C14.0285 11.0037 12.3406 12.9366 12.303 15.2636V15.2449ZM10.9902 15.0572C11.0652 15.0572 11.1402 15.0572 11.234 15.0572C11.3653 15.0572 11.4778 15.076 11.6091 15.0947C11.7216 12.4862 13.6347 10.3468 16.1291 9.8589C16.0916 9.65247 16.0541 9.44604 15.9978 9.25837C13.2408 9.8026 11.1215 12.1672 10.9902 15.0572ZM10.8401 3.2531C12.303 3.3094 13.6159 3.94746 14.5724 4.92332C14.3661 4.47292 14.141 4.04129 13.9535 3.62843C13.1095 3.0842 12.1155 2.72764 11.0652 2.65258C11.0089 2.69011 10.9527 2.72764 10.8964 2.76517C10.8964 2.78394 10.8964 2.82147 10.8964 2.84024C10.8964 2.9716 10.8777 3.10297 10.8589 3.23434L10.8401 3.2531ZM10.2775 15.7516C10.2212 15.7516 10.1462 15.7516 10.0899 15.7516C9.93989 15.7516 9.80861 15.7328 9.65857 15.714C9.54604 18.2287 7.78305 20.3118 5.41991 20.8936C5.71999 20.856 6.02007 20.8373 6.32015 20.8185C6.62024 20.8185 6.92032 20.8185 7.23916 20.7997C8.96463 19.7676 10.165 17.9097 10.2587 15.7703L10.2775 15.7516ZM12.8469 2.29601V2.25848C12.8469 1.92068 12.8844 1.60165 12.9595 1.28262C12.7532 1.43276 12.5093 1.60165 12.2468 1.78932C12.2468 1.90192 12.228 2.01452 12.228 2.12711C12.4343 2.18341 12.6406 2.23971 12.8469 2.31478V2.29601ZM10.6713 19.6925C9.84612 19.6925 9.13342 20.1429 8.73957 20.7997C8.98338 20.7997 9.2272 20.8185 9.47102 20.8373C9.7711 20.5182 10.2025 20.3118 10.6713 20.3118C11.309 20.3118 11.8717 20.6684 12.153 21.2126C12.3968 21.2689 12.6406 21.3064 12.8844 21.3627C12.6219 20.3869 11.7216 19.6738 10.6713 19.6925ZM10.9714 15.7703C10.9714 15.8454 10.9714 15.9205 10.9714 15.9768C10.9714 16.1081 10.9527 16.2395 10.9339 16.3709C12.8469 16.4459 14.4974 17.4968 15.4539 19.0357C15.5477 18.8105 15.6415 18.5853 15.7352 18.3413C14.6662 16.84 12.9407 15.8454 10.9902 15.7516L10.9714 15.7703ZM10.7839 17.0652C10.7276 17.2717 10.6713 17.4781 10.5963 17.6845H10.6338C12.5093 17.6845 14.1035 18.8668 14.7037 20.537C14.835 20.3118 14.9475 20.0866 15.0788 19.8239C14.2911 18.21 12.6781 17.1028 10.7839 17.0465V17.0652ZM10.6526 18.3789C10.5401 18.3789 10.4275 18.3789 10.315 18.3789C10.315 18.4164 10.2775 18.4539 10.2587 18.4915C10.2587 18.4915 10.2587 18.5102 10.2587 18.529C10.2212 18.6041 10.1837 18.6791 10.1462 18.7542C10.1274 18.7917 10.1087 18.8293 10.0712 18.8668C10.0712 18.8856 10.0337 18.9231 10.0337 18.9419C10.0149 18.9794 9.9774 19.0169 9.95865 19.0732C10.1837 19.0169 10.4275 18.9794 10.6713 18.9794C12.1718 18.9794 13.4283 20.0866 13.6347 21.5504C13.7659 21.5879 13.8972 21.6255 14.0285 21.663C14.1035 21.5692 14.1598 21.4753 14.2348 21.3627C13.9535 19.655 12.4531 18.3601 10.6901 18.3789H10.6526ZM3.71319 18.9043C3.73195 18.9419 3.7507 18.9794 3.76946 19.0169C3.88199 19.0169 3.99452 19.0169 4.10705 19.0169C6.07634 19.0169 7.68928 17.3842 7.67052 15.4138C7.67052 15.3012 7.67052 15.1886 7.67052 15.076C7.63301 15.076 7.5955 15.0384 7.57675 15.0197C7.57675 15.0197 7.53924 15.0197 7.53924 15.0009C7.46422 14.9634 7.3892 14.9258 7.31418 14.8883C7.27667 14.8695 7.2204 14.832 7.18289 14.8132C7.18289 14.8132 7.14538 14.7945 7.12662 14.7757C7.08911 14.7569 7.03285 14.7194 6.99534 14.7006C7.0516 14.9258 7.08911 15.1698 7.08911 15.4138C7.08911 17.0465 5.77625 18.3976 4.1258 18.3976C3.88199 18.3976 3.63817 18.3601 3.41311 18.3226C3.43186 18.3601 3.46937 18.3976 3.48813 18.4539C3.48813 18.4727 3.52564 18.5102 3.52564 18.529C3.54439 18.5665 3.56315 18.6041 3.60066 18.6416C3.63817 18.7167 3.67568 18.7917 3.71319 18.8668C3.71319 18.8668 3.71319 18.8856 3.73195 18.9043H3.71319ZM4.10705 19.7301H4.06954C4.14456 19.9365 4.20082 20.1429 4.25709 20.3493C6.8453 20.2555 8.92712 18.1537 8.98338 15.5639C8.77708 15.5076 8.57077 15.4513 8.36446 15.3762V15.4138C8.36446 17.7783 6.47019 19.7113 4.10705 19.7301ZM8.32695 8.86427C8.32695 7.60692 9.33973 6.57477 10.5963 6.57477C11.8529 6.57477 12.8844 7.58816 12.8844 8.84551C12.8844 10.1029 11.8717 11.135 10.6151 11.135C9.35849 11.135 8.32695 10.1216 8.32695 8.86427ZM8.94587 8.84551C8.94587 9.76507 9.69608 10.497 10.6151 10.497C11.5341 10.497 12.2655 9.7463 12.2655 8.82674C12.2655 7.90718 11.5153 7.17529 10.5963 7.17529C9.67732 7.17529 8.94587 7.92595 8.94587 8.84551ZM11.0089 12.3173C11.0089 12.3173 11.0089 12.2798 11.0277 12.2798C11.0652 12.2047 11.1027 12.1296 11.1402 12.0546C11.159 12.017 11.1965 11.9607 11.2152 11.9232C11.2152 11.9044 11.234 11.8857 11.2528 11.8669C11.2715 11.8294 11.309 11.7731 11.3278 11.7355C11.1027 11.7918 10.8589 11.8294 10.6151 11.8294C8.98338 11.8294 7.63301 10.5157 7.63301 8.86427C7.63301 8.62031 7.67052 8.37635 7.72679 8.15115C7.68928 8.16992 7.65177 8.20745 7.5955 8.22621C7.57675 8.22621 7.53924 8.26375 7.52048 8.26375C7.48297 8.28251 7.44546 8.30128 7.40795 8.33881C7.33293 8.37635 7.25791 8.41388 7.18289 8.47018C7.18289 8.47018 7.16413 8.47018 7.14538 8.47018C7.10787 8.47018 7.07036 8.50771 7.03285 8.52648C7.03285 8.63908 7.03285 8.75168 7.03285 8.86427C7.03285 10.8348 8.66455 12.4487 10.6338 12.4299C10.7464 12.4299 10.8589 12.4299 10.9714 12.4299C10.9714 12.3924 11.0089 12.3548 11.0277 12.3361L11.0089 12.3173ZM3.69444 21.1C3.52564 19.974 3.05676 18.9606 2.36282 18.1161C2.19402 18.2475 2.02523 18.3601 1.85643 18.4727C2.47535 19.2234 2.90672 20.1429 3.07552 21.1563C3.28182 21.1563 3.46937 21.1188 3.69444 21.1ZM8.36446 4.54799C6.99534 5.48631 5.77626 6.29327 5.5887 6.85626C5.5887 6.8938 5.5887 6.91256 5.56995 6.9501C6.78903 6.53723 7.80181 5.65521 8.36446 4.52922V4.54799ZM2.36282 21.1563C2.21278 20.3306 1.85643 19.5799 1.35004 18.9606C1.18125 19.1483 1.06872 19.336 1.01245 19.5236C1.33129 19.9553 1.57511 20.462 1.70639 21.0062C1.89394 21.1 2.119 21.1375 2.36282 21.1563ZM10.4838 13.7436C10.5401 13.5371 10.5963 13.3307 10.6713 13.1243H10.6338C8.27069 13.1243 6.33891 11.2288 6.32015 8.86427V8.82674C6.11385 8.90181 5.90754 8.95811 5.70123 9.01441C5.70123 9.33344 5.7575 9.6337 5.81377 9.9152C5.85128 10.0841 5.90754 10.253 5.94505 10.4031C6.58273 12.2985 8.36446 13.6873 10.465 13.7248L10.4838 13.7436ZM10.5776 5.86164C12.2093 5.86164 13.5596 7.17529 13.5596 8.82674C13.5596 9.07071 13.5221 9.31467 13.4846 9.53987C13.5221 9.50233 13.5784 9.48357 13.6159 9.44604C13.6159 9.44604 13.6534 9.42727 13.6722 9.4085C13.7097 9.38974 13.7659 9.3522 13.8035 9.33344C13.8785 9.2959 13.9535 9.25837 14.0285 9.22084C14.0285 9.22084 14.066 9.22084 14.066 9.20207L14.1598 9.14577C14.1598 9.03317 14.1598 8.92057 14.1598 8.80798C14.1598 6.8375 12.5281 5.22358 10.5588 5.24235C10.4463 5.24235 10.3338 5.24235 10.2212 5.26111C10.2212 5.29865 10.1837 5.33618 10.165 5.37371C10.165 5.37371 10.165 5.39248 10.165 5.41125C10.1274 5.48631 10.0899 5.56138 10.0524 5.63644C10.0337 5.67398 10.0149 5.71151 9.9774 5.74904C9.9774 5.76781 9.93989 5.80534 9.93989 5.82411C9.92114 5.86164 9.88363 5.91794 9.86487 5.95547C10.0899 5.89917 10.3338 5.86164 10.5776 5.86164ZM10.1274 3.3094C9.88363 3.4783 9.62106 3.66596 9.37724 3.83486C8.83334 5.71151 7.35169 7.21283 5.43866 7.70075C5.43866 7.90718 5.43866 8.11362 5.47617 8.32005C7.87683 7.73829 9.71483 5.74904 10.1274 3.29064V3.3094ZM10.315 14.832C10.315 14.7006 10.3338 14.5693 10.3525 14.4191C8.81459 14.3441 7.44546 13.6685 6.47019 12.5988C6.5077 12.8991 6.52646 13.1993 6.52646 13.4996C7.55799 14.4004 8.8521 14.9634 10.2962 15.0197C10.2962 14.9446 10.2962 14.8695 10.2962 14.8132L10.315 14.832ZM6.35766 15.4325C6.35766 15.2261 6.32015 15.0384 6.28264 14.8508C6.15136 15.151 5.96381 15.4325 5.71999 15.6953C5.60746 16.4835 4.91352 17.1028 4.08829 17.1028C4.05078 17.1028 3.99452 17.1028 3.95701 17.1028C3.71319 17.2529 3.46937 17.4218 3.22556 17.5719C3.48813 17.6845 3.78821 17.7408 4.08829 17.7408C5.34489 17.7408 6.35766 16.7087 6.35766 15.4513V15.4325ZM10.5776 4.54799C12.9407 4.54799 14.8725 6.4434 14.8912 8.80798V8.84551C15.0976 8.77044 15.3039 8.71414 15.5102 8.65784C15.4164 6.06807 13.3158 3.98499 10.7276 3.92869C10.6713 4.13513 10.6151 4.34156 10.5401 4.54799H10.5776Z" fill="#DD2026"/>
<path d="M28.5636 22.1133L27.2507 21.6817C26.9506 21.8131 26.6318 21.9444 26.2942 22.1133C27.3257 22.1884 28.6761 22.6951 29.295 22.9391C29.0512 22.6763 28.8074 22.3948 28.5636 22.1133Z" fill="#C76E28"/>
<path d="M33.4587 28.3626C33.2899 27.5181 32.971 26.6923 32.6334 25.9604L32.5584 25.8103C32.2208 25.5664 31.8832 25.3224 31.5457 25.0409C31.5832 25.0972 31.6019 25.1535 31.6394 25.191C32.2771 26.3545 32.7272 27.4993 32.9148 28.4564C33.0836 29.2633 33.0461 29.9765 32.9148 30.9711C33.1023 30.9711 33.2899 30.9711 33.4774 30.9899C33.6087 30.0328 33.6462 29.2258 33.4774 28.3438L33.4587 28.3626Z" fill="#C76E28"/>
<path d="M22.8621 34.9496L23.0309 34.7994C23.7436 34.1051 24.3062 33.1855 24.6251 32.2097C24.7376 31.8719 24.8126 31.5153 24.5688 31.3089C24.3062 31.0837 23.9311 31.3089 23.5373 31.5341L23.406 31.6092C22.9934 31.8531 22.2807 32.6413 21.4742 33.5609C21.3242 33.7298 21.1929 33.8799 21.0804 34.0113C20.4427 34.7244 20.2926 35.0997 20.0488 35.7753C19.9926 35.9254 20.0676 36.0756 20.2176 36.1319C20.3677 36.1882 20.5177 36.1131 20.574 35.963C20.799 35.3249 20.9116 35.0246 21.493 34.3866C21.6055 34.2552 21.7368 34.1051 21.8868 33.9362C22.4495 33.2981 23.3122 32.3223 23.6686 32.0971L23.8186 32.022C23.9124 31.9657 24.0437 31.8906 24.1374 31.8531C24.1374 31.9094 24.0999 31.9657 24.0812 32.0408C23.7998 32.9416 23.2747 33.7673 22.637 34.3866L22.4682 34.5367C21.7743 35.1748 20.5177 36.3758 19.73 38.4964C19.9363 38.4964 20.1426 38.4964 20.3301 38.4964C21.0616 36.6198 22.2057 35.5313 22.8433 34.9308L22.8621 34.9496Z" fill="#2B2A66"/>
<path d="M23.9873 35.5126C24.3437 35.0997 24.7188 34.6681 25.1126 34.1239C26.3692 32.3223 26.1629 31.0837 25.7878 30.3706C25.5065 29.8263 25.1126 29.6574 24.8501 29.6199C24.3999 29.5448 23.9123 29.7325 23.4997 30.1266C23.2559 30.3518 22.937 30.6145 22.5244 30.9523C21.9993 31.384 21.3429 31.9282 20.6114 32.6038C19.2986 33.8048 19.1485 34.7244 18.9797 35.8691L18.9422 36.0568C18.7922 37.0327 18.6609 37.6332 18.342 38.4777C18.5296 38.4777 18.7359 38.4777 18.9422 38.4777C19.2235 37.6895 19.3548 37.0702 19.4861 36.1319L19.5236 35.9442C19.6924 34.8558 19.8237 34.0863 20.9865 32.9979C21.718 32.3223 22.3744 31.7968 22.8808 31.3652C23.2934 31.0274 23.631 30.7459 23.8748 30.5019C24.1561 30.2392 24.4937 30.0891 24.7563 30.1454C24.9626 30.1829 25.1502 30.333 25.3002 30.5958C25.7316 31.4403 25.5065 32.5287 24.6625 33.7673C24.2874 34.2928 23.9311 34.7244 23.5747 35.1185C22.9933 35.7753 22.4494 36.3946 21.9993 37.3892C21.8117 37.7833 21.6617 38.1586 21.5117 38.4964C21.718 38.4964 21.9243 38.4964 22.1118 38.4964C22.2244 38.2149 22.3556 37.9147 22.5057 37.6144C22.937 36.6949 23.4247 36.1319 23.9873 35.475V35.5126Z" fill="#DD2026"/>
<path d="M25.3191 34.8745C25.169 34.837 25.019 34.9121 24.9627 35.0622C24.7377 35.8504 23.8937 37.3329 23.2185 38.5715C23.4436 38.5715 23.6499 38.5715 23.8562 38.5715C24.5314 37.3705 25.2816 35.9817 25.5066 35.1936C25.5441 35.0434 25.4691 34.8933 25.3191 34.837V34.8745Z" fill="#C76E28"/>
<path d="M27.2696 31.7405C27.4759 30.5958 27.5697 29.5261 26.4819 28.7567C25.5629 28.1186 24.4376 28.1561 23.3685 28.8505C22.5808 29.3572 21.8494 29.9014 20.9679 30.6521C20.1239 31.3464 19.8801 31.5716 18.9423 32.6601C18.0796 33.6735 17.9295 34.7244 17.7607 35.9254L17.7045 36.3008C17.5544 37.3892 17.3856 37.7646 17.0293 38.4965H17.6482C17.9295 37.8959 18.0983 37.408 18.2484 36.3758L18.3046 35.9817C18.4547 34.8182 18.586 33.8987 19.3549 32.9979C20.2552 31.947 20.499 31.7218 21.3055 31.0649C22.187 30.333 22.8809 29.8076 23.6686 29.3009C24.175 28.9631 25.169 28.5315 26.163 29.2071C26.932 29.7325 26.9508 30.4081 26.7257 31.6279C26.5006 32.829 26.4069 33.3357 26.2756 34.4617C26.1443 35.5314 25.7129 36.7512 25.0752 38.5715C25.3191 38.5715 25.5254 38.534 25.6942 38.4777C26.2943 36.7887 26.6882 35.6064 26.8195 34.5367C26.9695 33.4107 27.0445 32.9228 27.2696 31.7218V31.7405Z" fill="#F1A41E"/>
<path d="M28.6575 31.4215C28.9388 29.7513 28.7138 28.6253 27.9448 27.8559C27.2134 27.1427 26.6507 27.1427 25.3941 27.2366C25.1315 27.2366 24.9252 27.2553 24.7377 27.2741C24.0438 27.3116 23.7812 27.3116 22.8622 27.7057C21.7556 28.1749 21.3243 28.3813 20.2927 29.2258C20.1052 29.376 19.9364 29.5261 19.7863 29.6387C19.5425 29.8451 19.0924 30.2204 19.0736 30.2392C18.8673 30.7271 18.6798 31.1963 18.511 31.6467C19.0174 31.0649 19.6175 30.5019 20.1427 30.0703C20.2927 29.9389 20.4803 29.8076 20.6678 29.6387C21.6431 28.8317 22.0557 28.6441 23.0872 28.1937C23.8937 27.8371 24.1 27.8371 24.7564 27.7996C24.944 27.7996 25.1503 27.7996 25.4316 27.762C26.707 27.687 27.0258 27.7057 27.551 28.2124C27.9823 28.6441 28.4325 29.3759 28.1136 31.2714C28.0198 31.7968 27.9073 32.3786 27.7948 32.9791C27.551 34.2365 27.2884 35.6439 27.1196 36.9951C27.4572 36.3383 27.7385 35.5689 28.0198 34.7995C28.1324 34.2177 28.2261 33.6359 28.3387 33.0917C28.4512 32.4912 28.5637 31.9094 28.6575 31.3652V31.4215Z" fill="#126491"/>
<path d="M29.8389 29.0945C29.7076 27.2178 28.8824 26.561 28.2072 26.3545C27.3257 26.073 26.6318 25.8479 25.5815 25.9229C24.5687 25.998 22.9183 26.2607 21.8492 26.5985C21.5679 26.6923 21.1178 26.8988 20.7989 27.0489C20.5926 27.3679 20.4051 27.687 20.2175 27.9872C20.7989 27.6494 21.4366 27.3116 22.018 27.124C23.1058 26.7674 24.775 26.5422 25.619 26.4859C26.4442 26.4296 27.0819 26.5985 28.0384 26.8988C28.7699 27.124 29.2012 27.8934 29.2763 29.132C29.3513 30.1829 29.2387 31.3652 28.9574 32.7914C29.1637 32.4536 29.4075 32.1346 29.6889 31.8719C29.8389 30.8397 29.8952 29.9389 29.8389 29.0945Z" fill="#18152C"/>
<path d="M30.7205 27.4055C30.3642 26.1857 29.4827 25.6039 28.5637 25.1535C27.5509 24.6468 26.3506 24.8157 24.8502 25.0221L24.5876 25.0597C24.0437 25.1347 23.6123 25.1723 23.2372 25.2098C22.8621 25.2473 22.487 25.2661 22.0744 25.3412C21.8869 25.5664 21.6993 25.7916 21.5305 26.0168C22.2432 25.8479 22.7308 25.8103 23.2935 25.7728C23.6686 25.7353 24.1 25.6977 24.6626 25.6227L24.9252 25.5851C26.3318 25.3787 27.4571 25.2286 28.3199 25.6602C29.2389 26.1294 29.9141 26.6173 30.1766 27.5744C30.4392 28.4564 30.5517 29.7888 30.5142 31.3277C30.683 31.2526 30.8893 31.1963 31.0769 31.14C31.0956 29.6199 30.9643 28.325 30.7205 27.4242V27.4055Z" fill="#DD2026"/>
<path d="M27.3071 24.4216C27.4571 24.4404 27.6071 24.3465 27.6446 24.1964C27.6822 24.0463 27.5696 23.8961 27.4196 23.8774C27.157 23.8211 26.4443 23.7085 25.7691 23.7085C25.3753 23.7085 24.55 23.7648 23.5185 23.9337C23.2559 24.1589 23.0121 24.3841 22.7683 24.628C24.2125 24.3653 25.2815 24.2715 25.7691 24.2902C26.4256 24.2902 27.1383 24.4216 27.3258 24.4591L27.3071 24.4216Z" fill="#DC8526"/>
<path d="M32.1834 28.0623C31.9959 26.8425 31.452 26.1106 30.9831 25.4725C30.8706 25.3036 30.7393 25.1535 30.6455 24.9846C30.0453 24.065 28.3011 23.1267 27.5321 22.8452L25.2628 22.7139C24.9439 22.9203 24.6063 23.1267 24.25 23.3707L24.5688 23.3331C25.7317 23.2393 26.7444 23.1455 27.3258 23.3707C28.076 23.6522 29.6515 24.5342 30.1579 25.3036C30.2704 25.4725 30.3829 25.6414 30.5142 25.8103C30.9643 26.4296 31.452 27.0864 31.6208 28.1561C31.7708 29.0757 31.7708 30.1078 31.7333 31.0462C31.9209 31.0274 32.1084 31.0086 32.296 31.0086C32.3335 30.0515 32.3335 29.0194 32.1834 28.0811V28.0623Z" fill="#407044"/>
<path d="M37.0973 28.7191V28.6065C36.8535 28.4189 36.6097 28.25 36.3096 28.0811L36.3471 28.1937C36.6097 29.0006 36.8347 29.9202 36.6472 31.0274C36.891 30.9711 37.0973 30.896 37.2473 30.7647C37.3223 30.0328 37.2473 29.3572 37.0973 28.7191Z" fill="#18152C"/>
<path d="M34.7528 28.7567C34.5652 27.7057 34.4527 27.3679 34.3402 27.0864L34.3027 26.9926C34.0964 26.8612 33.8713 26.7299 33.665 26.5985C33.59 26.5422 33.515 26.5047 33.4399 26.4484L33.4775 26.561C33.5712 26.8237 33.6462 26.9926 33.7213 27.124C33.8713 27.443 33.9463 27.6307 34.1901 28.8505C34.3214 29.5448 34.2839 30.333 34.1901 31.0462C34.3777 31.0462 34.5652 31.0649 34.7528 31.0837C34.8466 30.333 34.8841 29.4885 34.7528 28.7567Z" fill="#126491"/>
<path d="M35.728 27.8559V27.762C35.4842 27.6494 35.2404 27.5181 34.9966 27.3867L35.0341 27.4805V27.5744C35.3717 28.6441 35.5967 29.4135 35.5405 30.2955C35.5217 30.5958 35.4842 30.8773 35.4655 31.14C35.6718 31.14 35.8593 31.14 36.0281 31.14C36.0469 30.896 36.0844 30.6333 36.1031 30.3518C36.1782 29.5073 35.9906 28.7567 35.7468 27.8746L35.728 27.8559Z" fill="#2B2A66"/>
<path d="M34.8841 6.79989C35.4843 6.42456 36.0657 6.3495 36.6471 6.89372C36.6846 6.93126 36.7221 6.96879 36.7409 7.00632C36.7409 7.00632 36.7409 7.00632 36.7596 7.04386C36.9472 7.28782 37.0034 7.60685 36.9659 7.98218C36.2532 7.58808 35.5405 7.19399 34.8841 6.83742V6.79989ZM36.4595 9.76499C35.5593 8.95803 34.659 8.24491 33.8338 7.60685C33.59 7.83205 33.3462 8.07601 33.1024 8.31998C34.0776 9.0331 35.1842 9.72746 36.2345 10.3843C36.3095 10.1779 36.4033 9.99019 36.4783 9.78376L36.4595 9.76499ZM32.5022 21.0436C32.5022 21.0249 32.4834 20.9873 32.4647 20.9686C31.8458 19.7863 30.4579 17.6281 29.989 16.5209C29.6139 15.6764 29.3701 15.0947 29.3513 15.0759C29.4639 16.8775 29.9703 18.5852 30.758 20.1804C30.7955 20.293 30.8517 20.3868 30.8893 20.4806C31.5082 21.6817 32.4459 23.3331 32.8773 24.4779C33.1399 25.191 33.3274 25.8666 33.44 26.4671C33.4962 26.5047 33.5712 26.5422 33.6275 26.5985C33.6463 26.5985 33.6838 26.636 33.7025 26.636C34.0401 24.7969 33.4587 22.864 32.4834 21.0436H32.5022ZM28.8449 15.2073C28.6762 14.0625 28.5636 12.8802 28.4698 11.7167C28.3573 11.773 28.2635 11.8293 28.151 11.8856C28.151 12.7301 28.1698 13.6121 28.151 14.4378C28.0385 17.0276 28.3573 19.9177 29.1075 22.7139C29.2576 22.8828 29.4076 23.0516 29.5764 23.2018C29.5764 22.6388 29.5389 22.0758 29.5014 21.5128C30.2703 22.8828 30.983 24.0087 31.5644 25.0221C31.9208 25.3224 32.2771 25.5851 32.6335 25.8479C32.2396 24.065 30.983 22.0946 29.4076 20.0115C29.2763 18.2287 29.07 16.5397 28.8637 15.1697L28.8449 15.2073ZM36.1407 27.9872C36.8159 27.8746 37.5848 27.7808 38.4288 27.7245C38.5414 27.4055 38.6539 27.0489 38.7664 26.7111C37.5098 26.88 36.347 27.1427 35.428 27.6119C35.6718 27.7433 35.9156 27.8746 36.1594 28.006L36.1407 27.9872ZM37.6974 29.8076C37.6974 29.8639 37.6974 29.9014 37.6974 29.9577C37.7911 29.6387 37.9599 29.1695 38.1475 28.6065C37.7724 28.6065 37.416 28.6065 37.0785 28.6253C37.4911 28.9819 37.7349 29.3572 37.7161 29.8076H37.6974ZM39.9855 19.1107C39.8542 18.9606 39.7042 18.8104 39.5354 18.6603C39.4791 18.7541 39.3853 18.8855 39.3478 18.9606C38.7664 19.9552 38.11 20.9686 37.4536 21.9069C36.2907 23.5583 35.2217 25.2286 34.1902 26.9363C34.3027 26.9926 34.4152 27.0677 34.5278 27.124C34.9591 26.3358 35.4092 25.5476 35.8781 24.7782C37.0597 22.8077 38.4851 20.8747 39.9855 19.1295V19.1107ZM34.7716 27.2553C34.8091 27.2741 34.8466 27.2929 34.8841 27.3116C35.8781 26.7299 37.3223 26.3358 39.0102 25.9792C39.1228 25.6227 39.254 25.2473 39.3666 24.9095C37.5098 25.3412 35.8594 26.073 34.7716 27.2741V27.2553ZM26.8944 12.5049C26.5193 12.6738 26.1255 12.8427 25.7128 13.0116C25.544 13.2368 25.3377 13.5558 25.1689 13.781C25.1877 14.2126 25.244 14.6818 25.3377 15.2073C25.9004 14.4566 26.4255 13.5558 26.8757 12.5424V12.5049H26.8944ZM34.6965 17.6844C35.5218 21.1187 35.5405 22.6576 35.5405 24.0463C36.5158 21.0061 36.1407 17.3466 34.3214 14.2502C34.8466 14.6443 35.428 15.0196 35.9531 15.3574C35.7843 15.0947 35.6343 14.8132 35.5218 14.5317C34.2277 13.1617 32.596 11.5103 31.2269 9.89636C30.983 10.084 30.7205 10.2717 30.4579 10.4594C31.3206 11.6416 32.4459 12.7489 33.6275 13.706C33.9276 14.7569 34.1902 15.6952 34.3965 16.5209C34.1902 16.2582 34.0401 16.0893 34.0401 16.0893C32.2584 13.8186 31.0018 12.2609 30.064 10.7221C29.8765 10.8534 29.6889 10.966 29.5014 11.0974C30.7017 13.9124 32.8585 16.3708 34.6778 17.6844H34.6965ZM31.7332 18.2099C32.8398 19.9177 33.44 20.7997 33.9839 22.2447C34.3777 23.3894 34.6403 24.4779 34.6778 25.435C35.4092 22.9015 34.5465 20.2742 33.1399 17.9096C33.1399 17.9096 33.1399 17.8909 33.1211 17.8721C33.1211 17.8721 33.1211 17.8721 33.1211 17.8533C33.0836 17.797 33.0461 17.7407 33.0086 17.6657C32.0521 16.1081 30.5329 14.2314 30.0078 13.2368C29.6327 12.5424 29.2951 11.8856 29.0513 11.3789C28.9762 11.4164 28.9012 11.4727 28.8262 11.5103C29.2201 13.9687 30.4204 16.3333 31.752 18.1911L31.7332 18.2099ZM25.5816 16.4271C25.6753 16.8212 25.7879 17.2153 25.9379 17.6469C25.9379 17.6844 25.9567 17.7032 25.9754 17.7407C26.9694 16.0142 27.4383 14.4003 27.7384 12.9553C26.9132 14.0813 26.2755 15.0384 25.6003 16.4271H25.5816ZM27.7009 15.226C27.7009 15.2636 27.1195 16.9901 26.4818 18.9793C26.6318 19.2984 26.8006 19.6174 26.9882 19.9177C27.4946 18.4163 27.7572 16.84 27.7009 15.226ZM37.4723 16.9525C37.1347 16.6711 36.7971 16.3708 36.5158 16.0705C36.5721 17.4592 36.6283 19.4485 36.7409 22.2635C37.3973 20.3493 37.5661 18.5102 37.4723 16.9713V16.9525ZM35.6531 11.9231C34.584 10.8722 33.4962 9.85883 32.5022 8.88297C32.2959 9.07063 32.0896 9.23953 31.8645 9.40843C31.8083 9.44596 31.7708 9.4835 31.7145 9.52103C32.8585 10.647 34.1902 11.6604 35.4843 12.5237C35.5218 12.3172 35.5968 12.1108 35.6531 11.9044V11.9231ZM38.2038 19.9552C38.4288 19.3734 38.6726 18.7166 38.8414 18.041C38.6164 17.8533 38.3913 17.6844 38.1662 17.4968C38.1287 18.3037 38.1663 19.0919 38.2038 19.9552ZM35.4092 26.0355C36.347 25.3599 37.8849 24.7782 39.5916 24.2527C39.7229 23.8586 39.873 23.4833 40.0043 23.1267C38.1475 23.7085 36.497 24.628 35.4092 26.0355ZM36.3282 24.628C37.6036 23.6334 38.8039 22.9578 40.2668 22.3198C40.3981 21.9069 40.5294 21.5316 40.6044 21.1938C38.954 22.0195 37.416 23.1642 36.3282 24.6093V24.628ZM37.8099 22.4324C38.3538 22.0383 39.4228 21.419 40.6982 20.7058C40.6982 20.5182 40.6982 20.368 40.6794 20.2367C40.6419 20.1053 40.5669 19.9552 40.5106 19.8238C39.4979 20.5369 38.5601 21.419 37.8287 22.4136L37.8099 22.4324Z" fill="#0E4022"/>
<path d="M33.3462 4.97954C33.3462 4.82941 33.3837 4.69804 33.4587 4.56668C33.9088 4.90447 34.359 5.2235 34.7528 5.505C34.6028 5.6739 34.3965 5.7865 34.1527 5.7865C33.7025 5.7865 33.3462 5.42994 33.3462 4.97954ZM18.2483 5.07337H20.1613L21.0241 5.93663H23.1434L23.5373 6.33073C23.4997 6.44332 23.4622 6.53716 23.4622 6.66852C23.4622 7.11892 23.8186 7.47548 24.2687 7.47548C24.7188 7.47548 25.0752 7.11892 25.0752 6.66852C25.0752 6.21813 24.7188 5.86156 24.2687 5.86156C23.8186 5.86156 24.0436 5.88033 23.9311 5.93663L23.3872 5.3924H21.2679L20.4052 4.52915H18.4921L17.3106 3.34686H14.6848L14.1034 3.92862C14.1972 4.09752 14.2722 4.28518 14.366 4.47285L14.9287 3.90985H17.0855L18.2671 5.09214L18.2483 5.07337ZM20.7427 10.009C20.6302 10.009 20.5177 10.0465 20.4052 10.084L19.1861 8.8642H17.892L17.4606 9.29583H15.9977C16.0352 9.48349 16.0727 9.67116 16.1102 9.85882H17.6857L18.117 9.42719H18.9423L19.9925 10.4781C19.955 10.5719 19.9175 10.7033 19.9175 10.8159C19.9175 11.2663 20.2739 11.6229 20.724 11.6229C21.1741 11.6229 21.5305 11.2663 21.5305 10.8159C21.5305 10.3655 21.1741 10.009 20.724 10.009H20.7427ZM29.6889 8.37627V1.71418C29.4826 1.56404 29.2951 1.43268 29.1263 1.32008V8.4138C28.845 8.54517 28.6387 8.82666 28.6387 9.16446C28.6387 9.50226 28.995 9.97142 29.4451 9.97142C29.8952 9.97142 30.2516 9.61486 30.2516 9.16446C30.2516 8.71407 30.0078 8.50764 29.6889 8.39504V8.37627ZM19.0173 11.4727C19.0173 11.0223 18.6609 10.6658 18.2108 10.6658C17.7607 10.6658 17.4043 11.0223 17.4043 11.4727C17.4043 11.9231 17.7607 12.2797 18.2108 12.2797C18.6609 12.2797 18.4171 12.2609 18.5109 12.2234L19.2236 12.9365V13.9311C19.4111 13.9311 19.5987 13.9687 19.7862 13.9687V12.6926L18.9235 11.8481C18.9798 11.7355 19.0173 11.6041 19.0173 11.4727ZM26.088 9.84005C25.7316 9.84005 25.4503 10.0653 25.3378 10.3655H24.0061L21.718 12.655V13.9874C21.9056 13.9874 22.0931 13.9499 22.2807 13.9311V12.899L24.25 10.9285H25.3565C25.469 11.2288 25.7691 11.454 26.1067 11.454C26.4443 11.454 26.9132 11.0974 26.9132 10.647C26.9132 10.1966 26.5568 9.84005 26.1067 9.84005H26.088ZM16.1852 6.16183C16.6354 6.16183 16.9917 5.80526 16.9917 5.35487C16.9917 4.90447 16.6354 4.54791 16.1852 4.54791C15.7351 4.54791 15.3788 4.90447 15.3788 5.35487C15.3788 5.80526 15.3975 5.5613 15.435 5.65513L15.0412 6.03046C15.1162 6.21813 15.1725 6.40579 15.2475 6.61222L15.8289 6.08676C15.9414 6.14306 16.0727 6.18059 16.204 6.18059L16.1852 6.16183ZM22.3744 9.59609C22.8246 9.59609 23.1809 9.23953 23.1809 8.78913C23.1809 8.33874 22.8246 7.98217 22.3744 7.98217C21.9243 7.98217 22.1119 8.01971 21.9806 8.07601L20.2926 6.38702H17.4418L16.279 7.55055H15.5476C15.6038 7.73821 15.6601 7.92587 15.7164 8.11354H16.5228L17.6857 6.95002H20.0676L21.6055 8.48887C21.568 8.5827 21.5492 8.67653 21.5492 8.77037C21.5492 9.22076 21.9056 9.57732 22.3557 9.57732L22.3744 9.59609ZM27.0257 2.85893V0.982283C26.8194 1.05735 26.6319 1.13241 26.4255 1.22625L26.4631 2.29594H25.4128L25.1127 1.99567C24.9626 2.10827 24.7939 2.2021 24.6251 2.3147L25.169 2.85893H27.007H27.0257ZM25.5065 4.81064C25.6191 5.11091 25.9192 5.3361 26.2568 5.3361C26.5943 5.3361 27.0632 4.97954 27.0632 4.52915C27.0632 4.07875 26.7069 3.72219 26.2568 3.72219C25.8066 3.72219 25.6191 3.94738 25.5065 4.24765H24.4187L23.331 3.15919C23.1622 3.25303 22.9934 3.34686 22.8058 3.44069L24.1937 4.82941H25.5253L25.5065 4.81064ZM27.8322 0.813385V6.03046L26.4255 7.43795C26.1255 7.30658 25.7691 7.34411 25.5253 7.60684C25.2065 7.92587 25.2065 8.43257 25.5253 8.7516C25.8441 9.07063 26.3505 9.07063 26.6694 8.7516C26.9132 8.50764 26.9694 8.15107 26.8194 7.85081L28.3761 6.29319V0.907217C28.226 0.850918 28.076 0.813385 27.9635 0.813385C27.8509 0.813385 27.8697 0.813385 27.8134 0.813385H27.8322ZM14.8536 2.72756C15.1912 2.72756 15.4913 2.50237 15.6038 2.2021H17.5169C17.2918 2.01444 17.0667 1.82677 16.8417 1.63911H15.6226C15.5101 1.33885 15.21 1.11365 14.8724 1.11365C14.5348 1.11365 14.0659 1.47021 14.0659 1.92061C14.0659 2.371 14.4223 2.72756 14.8724 2.72756H14.8536ZM31.0206 2.7088C30.833 2.55867 30.6455 2.40853 30.4579 2.27717V7.08138L32.3709 8.99556C32.521 8.8642 32.6523 8.7516 32.7835 8.62023L31.0206 6.85619V2.7088ZM32.2959 3.68465C32.1646 3.59082 32.0333 3.49699 31.902 3.40316C31.8458 3.36562 31.7895 3.30932 31.7332 3.27179V5.59883L33.8526 7.58808C34.0026 7.45671 34.1527 7.32535 34.2839 7.21275L32.2959 5.35487V3.68465Z" fill="#60BAD0"/>
<path d="M17.8735 25.0597H19.7302C19.5614 24.8908 19.3739 24.7219 19.1863 24.553H17.8735V23.4833C17.7422 23.3895 17.6109 23.2957 17.4796 23.2019V24.5343H17.1233L16.3543 23.7648V22.545C16.2043 22.47 16.0355 22.3949 15.8667 22.3198V23.7648L15.0977 24.5343H14.7601V21.8882C14.6288 21.8507 14.4975 21.7944 14.3475 21.7568V24.553H12.1531V21.2126C12.0219 21.1751 11.8718 21.1563 11.7405 21.1375V24.5718H11.3842L10.6152 23.8024V20.9686C10.4464 20.9499 10.2964 20.9311 10.1276 20.9123V23.8024L9.35863 24.5718H9.02104V20.8185C8.88975 20.8185 8.73971 20.8185 8.60843 20.8185V24.5906H6.43283V20.8185C6.41408 20.8185 6.39532 20.8185 6.35781 20.8185C6.3203 20.8185 6.26403 20.8185 6.22652 20.8185C6.1515 20.8185 6.09524 20.8185 6.03897 20.8185V24.5718H5.68263L4.91367 23.8024V20.9499C4.74487 20.9686 4.59483 20.9874 4.42603 21.0249V23.8024L3.65707 24.5718H3.31948V21.1563C3.18819 21.1563 3.03815 21.1751 2.90687 21.1751V24.5718H2.43799C2.49425 24.7407 2.55052 24.9096 2.58803 25.0785H2.90687V26.1294C3.05691 26.5986 3.18819 27.0677 3.31948 27.5181V25.0785H3.65707L4.42603 25.8479V29.0195L3.99466 29.4511C4.12595 29.7326 4.27599 29.9578 4.42603 30.0704C4.72611 30.2768 5.06371 30.4269 5.43881 30.5208L5.66387 30.2956H6.02022V30.6521C6.1515 30.6709 6.28279 30.6897 6.43283 30.7084V30.2956H8.60843V30.8398C8.73971 30.8398 8.871 30.8398 9.02104 30.8586V30.2956H9.35863L10.0338 30.9712C10.2214 31.0087 10.4277 31.0462 10.6152 31.0838V31.0462L11.3842 30.2768H11.7405V31.5342C11.8343 31.5905 11.9468 31.6468 12.0406 31.7218C12.0781 31.7406 12.1156 31.7781 12.1344 31.7969V30.2768H14.3287V34.9872H13.6911C13.7286 35.1561 13.7848 35.325 13.8224 35.4939H14.3475V37.2579C14.46 37.5582 14.5913 37.8209 14.7601 38.0274V35.5127H15.0977L15.8667 36.2821V38.5341C16.0542 38.5341 16.2043 38.459 16.3543 38.3839V36.2821L17.1233 35.5127H17.4796V35.7379C17.5921 35.081 17.7047 34.3867 17.8922 33.7486V30.2956H19.0925C19.1676 30.1267 19.2426 29.9578 19.3176 29.7889H17.8922V25.0785L17.8735 25.0597ZM6.03897 29.7889H5.68263L4.91367 29.0195V25.8479L5.68263 25.0785H6.03897V29.7889ZM8.62718 29.7889H6.45159V25.0785H8.62718V29.7889ZM10.1276 29.0195L9.35863 29.7889H9.02104V25.0785H9.35863L10.1276 25.8479V29.0195ZM11.7593 29.7889H11.4029L10.634 29.0195V25.8479L11.4029 25.0785H11.7593V29.7889ZM14.3475 29.7889H12.1531V25.0785H14.3475V29.7889ZM15.8479 34.2365L15.0789 35.006H14.7414V30.2956H15.0789L15.8479 31.065V34.2365ZM15.8479 29.0195L15.0789 29.7889H14.7414V25.0785H15.0789L15.8479 25.8479V29.0195ZM17.4796 35.006H17.1233L16.3543 34.2365V31.065L17.1233 30.2956H17.4796V35.006ZM17.4796 29.7889H17.1233L16.3543 29.0195V25.8479L17.1233 25.0785H17.4796V29.7889ZM20.4617 25.8292V27.5744C20.3116 27.7996 20.1803 28.0436 20.0491 28.2688V25.3788C20.1991 25.5289 20.3304 25.679 20.4617 25.8104V25.8292Z" fill="#BADBE6"/>
<path style="mix-blend-mode:multiply" d="M31.8271 9.44596C31.8646 9.40843 31.9021 9.38966 31.9396 9.35213C33.5901 8.01971 34.978 5.93664 36.2908 6.63099C35.5219 6.068 33.5901 4.66052 31.8834 3.3844C30.2142 2.12704 28.695 0.794623 27.9635 0.794623C25.7129 0.794623 23.4811 3.92862 20.7991 3.92862C18.1171 3.92862 15.6789 -0.443963 14.0285 0.49436C12.3218 1.45145 14.1598 3.64713 14.9662 5.8428C15.6602 7.71945 16.3916 10.0653 16.5042 13.4057C17.5732 13.7435 19.0361 14.025 20.9491 14.025C22.8621 14.025 23.7999 13.706 25.169 13.2368C28.2824 12.1108 30.2892 10.6846 31.8459 9.44596H31.8271Z" fill="url(#paint0_linear_4003_169)"/>
<path style="mix-blend-mode:multiply" d="M14.9851 5.86163C14.9851 5.8241 14.9476 5.7678 14.9288 5.73027C14.1786 3.74102 12.6407 1.77054 13.691 0.738388C12.922 1.30138 10.9902 2.70887 9.24602 3.92869C7.5393 5.12974 5.79508 6.1619 5.57002 6.85626C4.87608 8.99563 7.1642 12.0921 6.33898 14.6443C5.57002 17.0652 0.599907 18.1724 0.975009 20.0491C1.35011 21.9633 4.01334 20.8936 6.33898 20.8185C8.32702 20.7434 10.7839 20.7622 14.0098 21.6818C14.6475 20.781 15.3789 19.4673 15.9604 17.647C16.3917 16.3146 16.5418 14.832 16.5043 13.387C16.3917 10.0653 15.6603 7.73828 14.9663 5.8804L14.9851 5.86163Z" fill="url(#paint1_linear_4003_169)"/>
<path style="mix-blend-mode:multiply" d="M6.37644 20.7997C6.33893 20.7997 6.28266 20.7997 6.24515 20.7997C4.12582 20.9123 1.78143 21.7568 1.125 20.4244C1.42508 21.3252 2.15653 23.5959 2.79421 25.6415C3.41313 27.6307 3.86325 29.62 4.44466 30.0516C6.26391 31.384 9.92116 30.1454 12.078 31.7218C14.1223 33.2044 13.6534 38.2713 15.5477 38.4965C17.4795 38.7217 17.2919 35.8692 17.9296 33.636C18.4735 31.7218 19.2425 29.376 21.118 26.6173C20.4615 25.7165 19.43 24.6281 17.8921 23.5021C16.748 22.6764 15.3977 22.0759 14.0098 21.663C10.8214 20.7434 8.36448 20.7247 6.39519 20.7997H6.37644Z" fill="url(#paint2_linear_4003_169)"/>
<path style="mix-blend-mode:multiply" d="M17.9107 33.5984C17.9107 33.6359 17.8919 33.6922 17.8732 33.7298C17.3293 35.7753 17.4043 38.2713 15.9414 38.4965C16.8979 38.4965 19.2798 38.4965 21.3991 38.534C23.481 38.5715 25.5065 38.7592 26.1067 38.3276C27.9259 36.9951 27.8884 33.148 30.0453 31.5716C32.0896 30.0891 36.7784 32.0971 37.5661 30.3706C38.3913 28.5878 35.6155 27.8934 33.665 26.5985C32.0146 25.4913 30.0265 24.0275 27.9634 21.3814C26.9132 21.738 25.544 22.3761 24.0061 23.4833C22.862 24.309 21.8868 25.4162 21.0616 26.6173C19.2048 29.376 18.4358 31.703 17.8919 33.5984H17.9107Z" fill="url(#paint3_linear_4003_169)"/>
<path style="mix-blend-mode:multiply" d="M33.6462 26.5797C33.6837 26.5985 33.7212 26.636 33.7587 26.6548C35.5217 27.8183 37.9411 28.5127 37.6786 29.9765C37.9787 29.0757 38.7101 26.7862 39.404 24.7782C40.0792 22.8077 40.8857 20.931 40.6606 20.2367C39.9667 18.0973 36.2907 16.9338 35.4655 14.4003C34.6778 11.9982 38.0349 8.16984 36.647 6.87496C35.2029 5.54254 33.6837 7.98218 31.8645 9.40843C30.3078 10.6282 28.301 12.0733 25.1501 13.218C25.1501 14.3252 25.3377 15.8266 25.9379 17.6281C26.3692 18.9606 27.1194 20.2367 28.0009 21.4002C30.0452 24.0087 32.0145 25.4725 33.6462 26.5797Z" fill="url(#paint4_linear_4003_169)"/>
<path d="M118.813 1.30132V37.4643" stroke="white" stroke-width="2" stroke-miterlimit="10"/>
<path d="M88.8615 7.02509C83.9851 7.02509 77.1208 8.48887 69.675 11.21C63.467 13.4807 57.3153 16.3708 50.676 20.5745C54.5583 18.9793 62.2292 17.1965 68.5497 17.1965C74.8701 17.1965 83.1787 20.4619 74.195 31.9282C100.677 14.588 99.9458 7.02509 88.8615 7.02509Z" fill="#F88011"/>
<path d="M209.701 4.64175H210.132C216.359 4.64175 222.585 4.64175 228.793 4.64175C231.457 4.64175 234.045 5.14845 236.445 6.36827C240.328 8.33875 242.785 11.4352 243.835 15.6577C244.529 18.4914 244.491 21.3251 243.591 24.1213C242.541 27.3679 240.478 29.8451 237.571 31.6092C235.508 32.8665 233.276 33.6172 230.875 33.8611C230.069 33.9362 229.262 33.9925 228.474 33.9925C222.36 33.9925 216.265 33.9925 210.151 33.9925C204.037 33.9925 209.813 33.9925 209.663 33.9737C209.588 33.711 209.626 5.24228 209.682 4.64175H209.701ZM217.146 10.6095V27.7996C217.259 27.7996 217.353 27.8371 217.446 27.8559C217.803 27.8559 218.14 27.8746 218.497 27.8746C221.929 27.8746 225.361 27.8746 228.775 27.8371C229.769 27.8371 230.744 27.687 231.7 27.4055C234.157 26.6736 235.808 25.0784 236.558 22.6388C237.177 20.6683 237.214 18.6415 236.764 16.6335C236.127 13.8373 234.439 11.9982 231.7 11.135C230.481 10.7596 229.206 10.6095 227.931 10.6095C224.498 10.6095 221.047 10.6095 217.596 10.6095H217.128H217.146Z" fill="white"/>
<path d="M186.501 33.8987V10.8534H173.203C173.091 10.4969 173.091 5.01707 173.203 4.66051H207.563C207.675 4.96077 207.694 10.084 207.563 10.7971C206.85 10.8534 206.119 10.7971 205.406 10.8347C204.674 10.8347 203.924 10.8347 203.193 10.8347H194.397C194.397 11.0599 194.359 11.2475 194.359 11.4164C194.359 16.915 194.359 22.4136 194.359 27.9122C194.359 29.7888 194.359 31.6842 194.359 33.5609C194.359 33.6922 194.359 33.8048 194.34 33.9174C193.965 34.0113 186.876 34.0113 186.538 33.9174L186.501 33.8987Z" fill="white"/>
<path d="M279.957 4.52916C274.575 9.23954 269.286 13.8936 263.922 18.604C269.511 23.671 275.081 28.7379 280.689 33.8424C280.539 33.8424 280.464 33.8611 280.37 33.8611C276.9 33.8611 273.431 33.8611 269.961 33.8611C269.717 33.8611 269.548 33.7861 269.379 33.6172C267.541 31.7968 265.703 29.9765 263.865 28.1749C262.215 26.5422 260.546 24.9095 258.895 23.2769C257.432 21.8506 255.988 20.4244 254.525 18.9793C254.432 18.8855 254.338 18.7729 254.207 18.6415C254.319 18.5289 254.432 18.4163 254.544 18.3037C257.808 15.2823 261.09 12.2422 264.353 9.22077C265.966 7.71946 267.579 6.2369 269.173 4.73559C269.361 4.56669 269.548 4.49162 269.792 4.49162C273.018 4.49162 276.263 4.49162 279.507 4.49162C279.62 4.49162 279.732 4.49162 279.939 4.51039L279.957 4.52916Z" fill="white"/>
<path d="M253.869 33.9925H246.217C246.123 33.6359 246.142 5.07337 246.217 4.66051H253.794C253.794 4.73557 253.831 4.84817 253.85 4.942C253.85 5.0546 253.85 5.1672 253.85 5.29857V33.9925H253.869Z" fill="white"/>
<path d="M152.535 17.1402C154.598 15.0384 156.586 13.0116 158.593 10.966C160.675 13.0304 162.7 15.0571 164.782 17.1215C164.82 16.9901 164.857 16.9338 164.857 16.8587C164.857 16.7274 164.857 16.596 164.857 16.4646V4.92325C164.876 4.92325 164.895 4.90448 164.932 4.90448C168.421 10.966 171.909 17.0089 175.398 23.0704C175.398 23.0704 175.379 23.108 175.36 23.108C175.266 23.0704 175.173 23.0141 175.079 22.9578C171.834 21.0999 168.59 19.2421 165.326 17.4029C165.176 17.3279 165.045 17.2528 164.857 17.2153C165.532 20.0115 166.32 22.7889 167.052 25.6227C164.276 26.3733 161.519 27.1052 158.706 27.762C160.731 24.2715 162.738 20.7621 164.801 17.2153C164.651 17.1965 164.557 17.159 164.463 17.159C162.625 17.159 160.806 17.159 158.968 17.1777C156.924 17.1777 154.88 17.1777 152.854 17.1777C152.779 17.1777 152.704 17.1777 152.535 17.1402Z" fill="white"/>
<path d="M158.556 27.8371C158.874 28.0435 159.212 28.2687 159.531 28.4564C162.682 30.2955 165.833 32.1159 169.002 33.9362C169.077 33.9737 169.152 34.03 169.302 34.1239H147.94C148.071 34.0488 148.146 33.9737 148.222 33.9362C151.504 32.0408 154.767 30.1266 158.049 28.2312C158.237 28.1186 158.387 27.9685 158.556 27.8371Z" fill="white"/>
<path d="M141.713 23.3144C145.221 17.1965 148.709 11.0599 152.216 4.94202C152.235 4.94202 152.273 4.94202 152.291 4.96078C152.291 5.07338 152.31 5.18598 152.31 5.27981C152.31 9.10817 152.31 12.9178 152.31 16.7461C152.31 16.9713 152.291 17.159 152.047 17.2903C148.653 19.2796 145.277 21.2876 141.882 23.2956" fill="white"/>
<path d="M169.452 34.03C168.683 31.2526 167.914 28.4939 167.126 25.6602C169.902 24.8908 172.64 24.1213 175.379 23.3519L175.435 23.427C173.466 26.9551 171.496 30.4832 169.546 34.03C169.508 34.03 169.49 34.03 169.452 34.03Z" fill="white"/>
<path d="M158.574 27.8371C158.124 27.7245 157.674 27.6307 157.224 27.5181C154.973 26.9363 152.723 26.3358 150.491 25.7352C150.378 25.6977 150.266 25.6602 150.116 25.6227C150.866 22.8452 151.597 20.1053 152.366 17.2528C152.479 17.4217 152.554 17.5343 152.629 17.6469C154.242 20.4056 155.836 23.1642 157.449 25.9417C157.824 26.5797 158.199 27.2178 158.574 27.8559V27.8371Z" fill="white"/>
<path d="M141.732 23.5771C144.47 24.2715 147.227 24.9658 150.022 25.679C149.272 28.4752 148.521 31.2526 147.771 34.0113C147.752 34.0113 147.715 34.0113 147.696 34.0113C145.689 30.5395 143.683 27.0864 141.676 23.6147" fill="white"/>
<path d="M164.613 4.69804C162.588 6.72482 160.562 8.7516 158.574 10.7408C156.605 8.77036 154.579 6.74359 152.554 4.71681C152.554 4.71681 152.572 4.69804 152.591 4.69804C156.53 4.69804 160.487 4.69804 164.426 4.67928C164.482 4.67928 164.557 4.67928 164.613 4.69804Z" fill="white"/>
<defs>
<linearGradient id="paint0_linear_4003_169" x1="12.6781" y1="2.80264" x2="33.8194" y2="12.1952" gradientUnits="userSpaceOnUse">
<stop stop-color="#383942"/>
<stop offset="0.1" stop-color="#40414A"/>
<stop offset="0.2" stop-color="#818187"/>
<stop offset="0.3" stop-color="#B8B8BB"/>
<stop offset="0.4" stop-color="white"/>
</linearGradient>
<linearGradient id="paint1_linear_4003_169" x1="2.75675" y1="22.0383" x2="18.2401" y2="4.83878" gradientUnits="userSpaceOnUse">
<stop stop-color="#4B2A20"/>
<stop offset="0.1" stop-color="#523228"/>
<stop offset="0.2" stop-color="#866F69"/>
<stop offset="0.3" stop-color="#B2A4A0"/>
<stop offset="0.4" stop-color="white"/>
</linearGradient>
<linearGradient id="paint2_linear_4003_169" x1="17.9671" y1="37.4456" x2="6.38471" y2="17.3903" gradientUnits="userSpaceOnUse">
<stop stop-color="#2D3F48"/>
<stop offset="0.1" stop-color="#35474F"/>
<stop offset="0.2" stop-color="#768187"/>
<stop offset="0.3" stop-color="#ADB4B7"/>
<stop offset="0.4" stop-color="white"/>
</linearGradient>
<linearGradient id="paint3_linear_4003_169" x1="37.3035" y1="27.7245" x2="14.6649" y2="32.5232" gradientUnits="userSpaceOnUse">
<stop stop-color="#48403C"/>
<stop offset="0.1" stop-color="#504844"/>
<stop offset="0.2" stop-color="#8C8785"/>
<stop offset="0.3" stop-color="#C0BDBC"/>
<stop offset="0.4" stop-color="white"/>
</linearGradient>
<linearGradient id="paint4_linear_4003_169" x1="34.0401" y1="6.31196" x2="31.6178" y2="29.3381" gradientUnits="userSpaceOnUse">
<stop stop-color="#3B433B"/>
<stop offset="0.1" stop-color="#434B43"/>
<stop offset="0.2" stop-color="#848984"/>
<stop offset="0.3" stop-color="#BBBDBB"/>
<stop offset="0.4" stop-color="white"/>
</linearGradient>
</defs>
</svg>
